<?xml version="1.0" encoding="utf-8"?>
<!-- Generator: Adobe Illustrator 23.0.2, SVG Export Plug-In . SVG Version: 6.00 Build 0)  -->
<svg version="1.1" id="Ebene_1" xmlns="http://www.w3.org/2000/svg" xmlns:xlink="http://www.w3.org/1999/xlink" x="0px" y="0px"
	 viewBox="0 0 170.5 54.19" style="enable-background:new 0 0 170.5 54.19;" xml:space="preserve">
<style type="text/css">
	.st0{fill:#002846;}
</style>
<g>
	<polygon class="st0" points="35.76,21.03 32.88,33.98 28.52,21.03 25.31,21.03 20.96,33.98 18.08,21.03 13.68,21.03 18.86,40.47 
		22.32,40.47 26.92,27.65 31.52,40.47 34.97,40.47 40.15,21.03 	"/>
	<path class="st0" d="M43.32,40.47h4.11V21.03h-4.11V40.47z M43.32,17.74h4.11v-4.11h-4.11V17.74z"/>
	<path class="st0" d="M68.02,29.33H78.5c-0.12-2.3-1.36-5.14-5.14-5.14C70.08,24.2,68.39,26.29,68.02,29.33 M73.65,40.84
		c-5.88,0-9.9-4.11-9.9-9.86c0-6.78,4.6-10.19,9.62-10.19c5.8,0,9.12,4.19,9.12,9.99v1.31H67.98c0.37,3.16,2.22,5.38,6.29,5.38
		c2.34,0,4.23-0.82,5.75-1.69l1.4,2.92C79.69,39.86,76.74,40.84,73.65,40.84"/>
	<path class="st0" d="M94.34,40.93c-5.96,0-9.49-4.4-9.49-9.9c0-5.96,4.15-10.15,10.03-10.15c1.93,0,4.15,0.45,5.47,1.31l-1.19,3.54
		c-0.95-0.66-2.34-1.31-4.19-1.31c-3.58,0-5.8,2.46-5.8,6.37c0,3.49,1.77,6.7,6.13,6.7c1.85,0,3-0.66,4.07-1.48l1.15,3.41
		C99.07,40.31,96.56,40.93,94.34,40.93"/>
	<path class="st0" d="M105.8,30.86c0,3.78,2.22,6.53,5.84,6.53c3.58,0,5.59-2.75,5.59-6.53c0-3.99-2.3-6.58-5.71-6.58
		C108.06,24.28,105.8,26.91,105.8,30.86 M121.01,21.03v19.44h-4.11v-1.56c-1.6,1.23-3.82,1.93-6.04,1.93c-5.34,0-9.37-3.9-9.37-9.99
		c0-6.78,5.14-10.07,9.99-10.07c2.22,0,4.07,0.7,5.43,1.68v-1.44H121.01z"/>
	<path class="st0" d="M141.63,30.94c0,3.78,2.22,6.53,5.84,6.53c3.58,0,5.59-2.75,5.59-6.53c0-3.99-2.3-6.58-5.71-6.58
		C143.89,24.36,141.63,26.99,141.63,30.94 M156.83,13.63v26.92h-4.11v-1.56c-1.6,1.23-3.82,1.93-6.04,1.93
		c-5.34,0-9.37-3.91-9.37-9.99c0-6.78,5.14-10.07,9.99-10.07c2.22,0,4.07,0.7,5.43,1.68v-8.92H156.83z"/>
	<path class="st0" d="M134,20.7L134,20.7C134,20.7,134,20.7,134,20.7c-0.01,0-0.01,0-0.02,0c-0.16,0.01-2.96,0.17-4.22,1.93v-1.6
		h-4.11v19.44h4.11v-10.6c0-3.08,1.93-5.22,4.32-5.22c0.58,0,1.15,0.16,1.64,0.37l1.44-3.53C136.56,21.09,135.09,20.67,134,20.7z"/>
	<path class="st0" d="M60.38,20.68L60.38,20.68C60.38,20.68,60.38,20.68,60.38,20.68c-0.01,0-0.01,0-0.02,0
		c-0.16,0.01-2.96,0.17-4.22,1.93v-1.6h-4.11v19.44h4.11v-10.6c0-3.08,1.93-5.22,4.32-5.22c0.58,0,1.15,0.16,1.64,0.37l1.44-3.53
		C62.93,21.07,61.47,20.65,60.38,20.68z"/>
</g>
</svg>
